<?xml version="1.0" standalone="no"?>
<!DOCTYPE svg PUBLIC "-//W3C//DTD SVG 20010904//EN"
 "http://www.w3.org/TR/2001/REC-SVG-20010904/DTD/svg10.dtd">
<svg version="1.0" xmlns="http://www.w3.org/2000/svg"
 width="500.000000pt" height="500.000000pt" viewBox="0 0 500.000000 500.000000"
 preserveAspectRatio="xMidYMid meet">

<g transform="translate(0.000000,500.000000) scale(0.100000,-0.100000)"
fill="#ffffff" stroke="none" class="svgLogo">
<path d="M3874 4437 c-9 -25 4 -37 40 -37 44 0 132 -45 161 -84 56 -73 58 -90
65 -511 4 -277 10 -399 19 -420 34 -82 98 -141 179 -166 47 -14 47 -24 0 -33
-45 -9 -107 -54 -140 -101 -52 -75 -58 -127 -58 -490 0 -181 -5 -368 -10 -414
-18 -157 -80 -238 -201 -263 -46 -9 -59 -16 -59 -30 0 -16 9 -18 68 -18 89 0
187 17 242 41 55 24 115 80 142 133 44 86 50 154 47 581 -3 391 -3 401 18 440
32 62 82 97 160 113 56 12 54 35 -4 50 -80 22 -128 56 -154 109 -23 47 -23 52
-24 413 0 409 -7 467 -68 557 -61 90 -146 127 -324 139 -79 6 -93 5 -99 -9z"/>
<path d="M912 4399 c-134 -22 -224 -97 -264 -217 -20 -63 -22 -91 -27 -462 -6
-375 -7 -397 -27 -430 -25 -44 -73 -76 -141 -96 -70 -20 -68 -42 6 -61 64 -16
114 -51 139 -96 15 -29 17 -71 17 -452 0 -459 2 -482 58 -588 33 -64 68 -95
138 -126 47 -21 170 -41 250 -41 41 0 49 3 49 18 0 15 -13 22 -54 31 -105 23
-174 100 -195 215 -7 35 -11 201 -11 400 0 188 -5 372 -10 410 -18 122 -83
208 -184 242 -26 9 -46 17 -46 19 0 2 17 9 38 15 84 27 158 99 183 179 8 23
14 177 18 426 7 434 8 435 77 506 39 40 87 64 147 74 28 4 37 11 37 25 0 18
-7 20 -72 19 -40 -1 -97 -5 -126 -10z"/>
<path d="M2637 3863 c-4 -3 -7 -44 -7 -90 l0 -83 83 0 c46 0 86 2 88 4 2 2 3
43 1 90 l-3 86 -78 0 c-43 0 -81 -3 -84 -7z"/>
<path d="M1757 3853 c-4 -3 -7 -44 -7 -90 l0 -83 85 0 85 0 0 90 0 90 -78 0
c-43 0 -82 -3 -85 -7z"/>
<path d="M2420 3775 l0 -85 90 0 90 0 0 85 0 85 -90 0 -90 0 0 -85z"/>
<path d="M2974 3847 c-3 -8 -4 -47 -2 -88 l3 -74 85 0 85 0 0 85 0 85 -83 3
c-63 2 -84 0 -88 -11z"/>
<path d="M2377 3653 c-4 -3 -7 -44 -7 -90 l0 -83 83 0 c46 0 86 2 88 4 2 2 3
43 1 90 l-3 86 -78 0 c-43 0 -81 -3 -84 -7z"/>
<path d="M2580 3570 l0 -90 85 0 85 0 0 90 0 90 -85 0 -85 0 0 -90z"/>
<path d="M1540 3565 l0 -85 85 0 85 0 0 85 0 85 -85 0 -85 0 0 -85z"/>
<path d="M1750 3565 l0 -85 85 0 85 0 0 85 0 85 -85 0 -85 0 0 -85z"/>
<path d="M2970 3565 l0 -85 90 0 90 0 0 85 0 85 -90 0 -90 0 0 -85z"/>
<path d="M3190 3565 l0 -85 85 0 85 0 0 85 0 85 -85 0 -85 0 0 -85z"/>
<path d="M2320 3360 l0 -91 88 3 87 3 0 85 0 85 -87 3 -88 3 0 -91z"/>
<path d="M2532 3363 l3 -88 48 1 c26 1 64 2 85 3 l38 1 -2 43 c-2 23 -3 61 -3
85 l-1 42 -85 0 -86 0 3 -87z"/>
<path d="M1330 3355 l0 -85 85 0 85 0 0 85 0 85 -85 0 -85 0 0 -85z"/>
<path d="M1540 3355 l0 -85 85 0 85 0 0 85 0 85 -85 0 -85 0 0 -85z"/>
<path d="M1750 3355 l0 -85 84 0 c47 0 87 4 90 8 3 4 2 43 -1 85 l-6 77 -83 0
-84 0 0 -85z"/>
<path d="M2970 3355 l0 -85 90 0 90 0 0 85 0 85 -90 0 -90 0 0 -85z"/>
<path d="M3190 3355 l0 -85 85 0 85 0 0 85 0 85 -85 0 -85 0 0 -85z"/>
<path d="M3400 3355 l0 -85 85 0 85 0 0 85 0 85 -85 0 -85 0 0 -85z"/>
<path d="M1120 3150 l0 -90 85 0 85 0 0 90 0 90 -85 0 -85 0 0 -90z"/>
<path d="M1330 3150 l0 -90 85 0 85 0 0 90 0 90 -85 0 -85 0 0 -90z"/>
<path d="M1540 3150 l0 -90 85 0 85 0 0 90 0 90 -85 0 -85 0 0 -90z"/>
<path d="M2282 3153 l3 -88 48 1 c26 1 64 2 85 3 l38 1 -2 43 c-2 23 -3 61 -3
85 l-1 42 -85 0 -86 0 3 -87z"/>
<path d="M2490 3155 l0 -85 85 0 85 0 0 85 0 85 -85 0 -85 0 0 -85z"/>
<path d="M3187 3233 c-2 -5 -2 -45 1 -90 l4 -83 84 0 84 0 0 90 0 90 -84 0
c-47 0 -87 -3 -89 -7z"/>
<path d="M3400 3150 l0 -90 85 0 85 0 0 90 0 90 -85 0 -85 0 0 -90z"/>
<path d="M3610 3150 l0 -90 85 0 85 0 0 90 0 90 -85 0 -85 0 0 -90z"/>
<path d="M2427 3034 c-4 -4 -7 -45 -7 -91 l0 -83 90 0 91 0 -3 88 -3 87 -80 3
c-45 1 -84 0 -88 -4z"/>
<path d="M1120 2945 l0 -85 85 0 85 0 0 85 0 85 -85 0 -85 0 0 -85z"/>
<path d="M1330 2945 l0 -85 85 0 85 0 0 85 0 85 -85 0 -85 0 0 -85z"/>
<path d="M1540 2945 l0 -85 85 0 85 0 0 85 0 85 -85 0 -85 0 0 -85z"/>
<path d="M2210 2945 l0 -85 90 0 90 0 0 85 0 85 -90 0 -90 0 0 -85z"/>
<path d="M3190 2945 l0 -85 85 0 85 0 0 85 0 85 -85 0 -85 0 0 -85z"/>
<path d="M3400 2945 l0 -85 85 0 85 0 0 85 0 85 -85 0 -85 0 0 -85z"/>
<path d="M3610 2945 l0 -85 85 0 85 0 0 85 0 85 -85 0 -85 0 0 -85z"/>
<path d="M2167 2824 c-4 -4 -7 -45 -7 -91 l0 -83 90 0 91 0 -3 88 -3 87 -80 3
c-45 1 -84 0 -88 -4z"/>
<path d="M2370 2740 l0 -91 87 3 88 3 -2 45 c-1 25 -2 64 -2 88 l-1 42 -85 0
-85 0 0 -90z"/>
<path d="M1330 2735 l0 -85 85 0 85 0 0 85 0 85 -85 0 -85 0 0 -85z"/>
<path d="M1540 2735 l0 -85 85 0 85 0 0 85 0 85 -85 0 -85 0 0 -85z"/>
<path d="M1750 2735 l0 -85 90 0 90 0 0 85 0 85 -90 0 -90 0 0 -85z"/>
<path d="M2970 2735 l0 -85 90 0 90 0 0 85 0 85 -90 0 -90 0 0 -85z"/>
<path d="M3190 2735 l0 -85 85 0 85 0 0 85 0 85 -85 0 -85 0 0 -85z"/>
<path d="M3400 2735 l0 -85 85 0 85 0 0 85 0 85 -85 0 -85 0 0 -85z"/>
<path d="M1547 2613 c-4 -3 -7 -44 -7 -90 l0 -83 85 0 85 0 0 90 0 90 -78 0
c-43 0 -82 -3 -85 -7z"/>
<path d="M1750 2530 l0 -90 90 0 91 0 -3 88 -3 87 -87 3 -88 3 0 -91z"/>
<path d="M2114 2607 c-3 -8 -4 -47 -2 -88 l3 -74 88 -3 87 -3 0 91 0 90 -85 0
c-63 0 -87 -4 -91 -13z"/>
<path d="M2322 2533 l3 -88 85 1 85 2 3 86 3 86 -91 0 -91 0 3 -87z"/>
<path d="M2974 2607 c-3 -8 -4 -47 -2 -88 l3 -74 88 -3 87 -3 0 91 0 90 -85 0
c-63 0 -87 -4 -91 -13z"/>
<path d="M3190 2530 l0 -90 85 0 85 0 0 90 0 90 -85 0 -85 0 0 -90z"/>
<path d="M1752 2323 l3 -88 85 1 85 2 3 86 3 86 -91 0 -91 0 3 -87z"/>
<path d="M2072 2323 l3 -88 85 1 85 2 3 86 3 86 -91 0 -91 0 3 -87z"/>
<path d="M2280 2325 l0 -85 83 0 c46 0 86 2 88 4 2 2 3 41 1 85 l-4 81 -84 0
-84 0 0 -85z"/>
<path d="M2972 2323 l3 -88 85 0 85 0 3 88 3 87 -91 0 -91 0 3 -87z"/>
<path d="M852 1408 c-8 -8 -12 -46 -12 -103 0 -79 -3 -94 -20 -110 -25 -22
-25 -33 0 -65 16 -21 20 -41 20 -121 0 -82 3 -98 19 -113 23 -21 65 -18 69 6
2 12 -5 17 -25 20 l-28 3 -3 100 c-2 74 -7 104 -19 117 -15 17 -15 19 0 36 13
14 17 39 17 106 l0 88 30 11 c17 6 30 17 30 24 0 17 -62 17 -78 1z"/>
<path d="M4090 1407 c0 -7 14 -18 30 -24 l30 -11 0 -88 c0 -67 4 -92 17 -106
15 -17 15 -19 0 -36 -13 -14 -17 -39 -17 -104 0 -103 -5 -118 -36 -118 -17 0
-24 -6 -24 -20 0 -25 35 -27 68 -4 20 14 22 23 22 113 0 83 3 102 20 124 11
14 20 29 20 35 0 5 -9 17 -20 27 -17 15 -20 31 -20 102 0 103 -9 123 -55 123
-22 0 -35 -5 -35 -13z"/>
<path d="M980 1145 l0 -215 25 0 25 0 0 196 0 195 41 -3 41 -3 0 -70 0 -70
-37 -3 c-23 -2 -35 -8 -32 -15 2 -7 21 -60 42 -119 34 -98 40 -108 62 -108 20
0 24 4 18 18 -4 9 -17 46 -30 82 -13 36 -26 73 -30 83 -5 13 -2 17 13 17 36 0
43 23 40 126 l-3 99 -87 3 -88 3 0 -216z"/>
<path d="M1330 1145 c0 -208 1 -215 20 -215 18 0 20 7 20 85 l0 84 63 3 62 3
0 125 0 125 -82 3 -83 3 0 -216z m130 85 l0 -90 -45 0 -45 0 0 90 0 90 45 0
45 0 0 -90z"/>
<path d="M1660 1145 l0 -215 70 0 c62 0 74 3 95 25 25 24 25 27 25 190 0 163
0 166 -25 190 -21 22 -33 25 -95 25 l-70 0 0 -215z m128 163 c8 -8 12 -59 12
-163 0 -166 -3 -175 -57 -175 l-33 0 0 175 0 175 33 0 c18 0 38 -5 45 -12z"/>
<path d="M1910 1145 l0 -215 70 0 c63 0 70 2 70 20 0 17 -7 20 -50 20 l-50 0
0 80 0 80 45 0 c38 0 45 3 45 20 0 17 -7 20 -45 20 l-45 0 0 75 0 75 50 0 c43
0 50 3 50 20 0 18 -7 20 -70 20 l-70 0 0 -215z"/>
<path d="M2090 1355 c0 -3 16 -97 35 -208 19 -111 35 -205 35 -209 0 -5 10 -8
23 -8 22 0 25 7 56 193 18 105 35 202 38 215 4 18 1 22 -19 22 -24 0 -25 -4
-47 -152 -13 -84 -24 -154 -26 -156 -3 -3 -45 266 -45 291 0 12 -8 17 -25 17
-14 0 -25 -2 -25 -5z"/>
<path d="M2320 1145 l0 -215 75 0 c68 0 75 2 75 20 0 17 -7 20 -50 20 l-50 0
0 80 0 80 45 0 c38 0 45 3 45 20 0 17 -7 20 -45 20 l-45 0 0 75 0 75 50 0 c43
0 50 3 50 20 0 18 -7 20 -75 20 l-75 0 0 -215z"/>
<path d="M2520 1145 l0 -215 76 0 c66 0 75 2 72 18 -2 13 -15 18 -51 20 l-47
3 0 195 0 194 -25 0 -25 0 0 -215z"/>
<path d="M2714 1347 c-2 -7 -3 -102 -2 -212 l3 -200 78 -3 c50 -2 84 1 93 9
19 15 21 388 2 407 -17 17 -167 16 -174 -1z m136 -202 l0 -175 -45 0 -45 0 0
175 0 175 45 0 45 0 0 -175z"/>
<path d="M2960 1145 c0 -207 1 -215 20 -215 17 0 19 8 22 83 l3 82 55 3 c74 4
80 14 80 130 0 129 -2 132 -100 132 l-80 0 0 -215z m130 85 l0 -90 -45 0 -45
0 0 90 0 90 45 0 45 0 0 -90z"/>
<path d="M3190 1145 c0 -207 1 -215 20 -215 18 0 20 8 22 118 l3 117 25 -92
c14 -50 29 -93 34 -95 6 -2 21 40 35 92 l26 95 3 -117 c2 -110 4 -118 22 -118
19 0 20 8 20 215 0 204 -1 215 -19 215 -16 0 -23 -19 -46 -112 -15 -62 -31
-119 -35 -127 -4 -8 -16 23 -29 75 -41 166 -40 164 -61 164 -19 0 -20 -8 -20
-215z"/>
<path d="M3460 1145 l0 -215 75 0 c68 0 75 2 75 20 0 17 -7 20 -50 20 l-50 0
0 80 0 80 45 0 c38 0 45 3 45 20 0 17 -7 20 -45 20 l-45 0 0 75 0 75 50 0 c43
0 50 3 50 20 0 18 -7 20 -75 20 l-75 0 0 -215z"/>
<path d="M3660 1146 l0 -216 25 0 24 0 3 137 3 136 49 -136 c39 -109 53 -137
67 -137 18 0 19 12 19 215 l0 215 -25 0 -24 0 -3 -132 -3 -133 -46 130 c-38
108 -50 131 -68 133 -21 3 -21 3 -21 -212z"/>
<path d="M3880 1340 c0 -16 7 -20 35 -20 l35 0 0 -196 0 -195 23 3 c22 3 22 4
24 193 l2 190 30 3 c23 2 31 8 31 23 0 17 -8 19 -90 19 -83 0 -90 -1 -90 -20z"/>
</g>
</svg>
